<mxfile host="Electron" agent="Mozilla/5.0 (Windows NT 10.0; Win64; x64) AppleWebKit/537.36 (KHTML, like Gecko) draw.io/24.7.17 Chrome/128.0.6613.36 Electron/32.0.1 Safari/537.36" version="24.7.17">
  <diagram id="C5RBs43oDa-KdzZeNtuy" name="Page-1">
    <mxGraphModel dx="1219" dy="722" grid="1" gridSize="10" guides="1" tooltips="1" connect="1" arrows="1" fold="1" page="1" pageScale="1" pageWidth="827" pageHeight="1169" math="0" shadow="0">
      <root>
        <mxCell id="WIyWlLk6GJQsqaUBKTNV-0" />
        <mxCell id="WIyWlLk6GJQsqaUBKTNV-1" parent="WIyWlLk6GJQsqaUBKTNV-0" />
        <mxCell id="zkfFHV4jXpPFQw0GAbJ--0" value="User" style="swimlane;fontStyle=2;align=center;verticalAlign=top;childLayout=stackLayout;horizontal=1;startSize=26;horizontalStack=0;resizeParent=1;resizeLast=0;collapsible=1;marginBottom=0;rounded=0;shadow=0;strokeWidth=1;fillColor=default;" parent="WIyWlLk6GJQsqaUBKTNV-1" vertex="1">
          <mxGeometry x="100" y="120" width="160" height="310" as="geometry">
            <mxRectangle x="230" y="140" width="160" height="26" as="alternateBounds" />
          </mxGeometry>
        </mxCell>
        <mxCell id="zkfFHV4jXpPFQw0GAbJ--1" value="Id_KH" style="text;align=left;verticalAlign=top;spacingLeft=4;spacingRight=4;overflow=hidden;rotatable=0;points=[[0,0.5],[1,0.5]];portConstraint=eastwest;fillColor=default;" parent="zkfFHV4jXpPFQw0GAbJ--0" vertex="1">
          <mxGeometry y="26" width="160" height="26" as="geometry" />
        </mxCell>
        <mxCell id="zkfFHV4jXpPFQw0GAbJ--2" value="Tên" style="text;align=left;verticalAlign=top;spacingLeft=4;spacingRight=4;overflow=hidden;rotatable=0;points=[[0,0.5],[1,0.5]];portConstraint=eastwest;rounded=0;shadow=0;html=0;fillColor=default;" parent="zkfFHV4jXpPFQw0GAbJ--0" vertex="1">
          <mxGeometry y="52" width="160" height="26" as="geometry" />
        </mxCell>
        <mxCell id="zkfFHV4jXpPFQw0GAbJ--3" value="Mail&#xa;&#xa;SDT&#xa;&#xa;Địa chỉ" style="text;align=left;verticalAlign=top;spacingLeft=4;spacingRight=4;overflow=hidden;rotatable=0;points=[[0,0.5],[1,0.5]];portConstraint=eastwest;rounded=0;shadow=0;html=0;fillColor=default;" parent="zkfFHV4jXpPFQw0GAbJ--0" vertex="1">
          <mxGeometry y="78" width="160" height="102" as="geometry" />
        </mxCell>
        <mxCell id="zkfFHV4jXpPFQw0GAbJ--4" value="" style="line;html=1;strokeWidth=1;align=left;verticalAlign=middle;spacingTop=-1;spacingLeft=3;spacingRight=3;rotatable=0;labelPosition=right;points=[];portConstraint=eastwest;" parent="zkfFHV4jXpPFQw0GAbJ--0" vertex="1">
          <mxGeometry y="180" width="160" height="10" as="geometry" />
        </mxCell>
        <mxCell id="JpwA6bhCf7EVs3LNftHb-0" value="Tìm kiếm dịch vụ" style="text;html=1;align=center;verticalAlign=middle;resizable=0;points=[];autosize=1;strokeColor=none;fillColor=default;" vertex="1" parent="zkfFHV4jXpPFQw0GAbJ--0">
          <mxGeometry y="190" width="160" height="30" as="geometry" />
        </mxCell>
        <mxCell id="JpwA6bhCf7EVs3LNftHb-1" value="Xem thông tin dịch vụ" style="text;html=1;align=center;verticalAlign=middle;resizable=0;points=[];autosize=1;strokeColor=none;fillColor=default;" vertex="1" parent="zkfFHV4jXpPFQw0GAbJ--0">
          <mxGeometry y="220" width="160" height="30" as="geometry" />
        </mxCell>
        <mxCell id="JpwA6bhCf7EVs3LNftHb-2" value="Quản lý Booking" style="text;html=1;align=center;verticalAlign=middle;resizable=0;points=[];autosize=1;strokeColor=none;fillColor=default;" vertex="1" parent="zkfFHV4jXpPFQw0GAbJ--0">
          <mxGeometry y="250" width="160" height="30" as="geometry" />
        </mxCell>
        <mxCell id="JpwA6bhCf7EVs3LNftHb-3" value="Gửi khiếu nại" style="text;html=1;align=center;verticalAlign=middle;resizable=0;points=[];autosize=1;strokeColor=none;fillColor=default;" vertex="1" parent="zkfFHV4jXpPFQw0GAbJ--0">
          <mxGeometry y="280" width="160" height="30" as="geometry" />
        </mxCell>
        <mxCell id="JpwA6bhCf7EVs3LNftHb-4" value="Service Provider" style="swimlane;fontStyle=2;align=center;verticalAlign=top;childLayout=stackLayout;horizontal=1;startSize=26;horizontalStack=0;resizeParent=1;resizeLast=0;collapsible=1;marginBottom=0;rounded=0;shadow=0;strokeWidth=1;fillColor=default;" vertex="1" parent="WIyWlLk6GJQsqaUBKTNV-1">
          <mxGeometry x="770" y="106" width="160" height="250" as="geometry">
            <mxRectangle x="230" y="140" width="160" height="26" as="alternateBounds" />
          </mxGeometry>
        </mxCell>
        <mxCell id="JpwA6bhCf7EVs3LNftHb-5" value="Id_NCC" style="text;align=left;verticalAlign=top;spacingLeft=4;spacingRight=4;overflow=hidden;rotatable=0;points=[[0,0.5],[1,0.5]];portConstraint=eastwest;fillColor=default;" vertex="1" parent="JpwA6bhCf7EVs3LNftHb-4">
          <mxGeometry y="26" width="160" height="26" as="geometry" />
        </mxCell>
        <mxCell id="JpwA6bhCf7EVs3LNftHb-6" value="Tên NCC" style="text;align=left;verticalAlign=top;spacingLeft=4;spacingRight=4;overflow=hidden;rotatable=0;points=[[0,0.5],[1,0.5]];portConstraint=eastwest;rounded=0;shadow=0;html=0;fillColor=default;" vertex="1" parent="JpwA6bhCf7EVs3LNftHb-4">
          <mxGeometry y="52" width="160" height="26" as="geometry" />
        </mxCell>
        <mxCell id="JpwA6bhCf7EVs3LNftHb-13" value="Thông tin liên hệ" style="text;align=left;verticalAlign=top;spacingLeft=4;spacingRight=4;overflow=hidden;rotatable=0;points=[[0,0.5],[1,0.5]];portConstraint=eastwest;rounded=0;shadow=0;html=0;fillColor=default;" vertex="1" parent="JpwA6bhCf7EVs3LNftHb-4">
          <mxGeometry y="78" width="160" height="26" as="geometry" />
        </mxCell>
        <mxCell id="JpwA6bhCf7EVs3LNftHb-7" value="Kiểu Dịch Vụ&#xa;&#xa;" style="text;align=left;verticalAlign=top;spacingLeft=4;spacingRight=4;overflow=hidden;rotatable=0;points=[[0,0.5],[1,0.5]];portConstraint=eastwest;rounded=0;shadow=0;html=0;fillColor=default;" vertex="1" parent="JpwA6bhCf7EVs3LNftHb-4">
          <mxGeometry y="104" width="160" height="40" as="geometry" />
        </mxCell>
        <mxCell id="JpwA6bhCf7EVs3LNftHb-8" value="" style="line;html=1;strokeWidth=1;align=left;verticalAlign=middle;spacingTop=-1;spacingLeft=3;spacingRight=3;rotatable=0;labelPosition=right;points=[];portConstraint=eastwest;" vertex="1" parent="JpwA6bhCf7EVs3LNftHb-4">
          <mxGeometry y="144" width="160" height="10" as="geometry" />
        </mxCell>
        <mxCell id="JpwA6bhCf7EVs3LNftHb-9" value="Thêm dịch vụ" style="text;html=1;align=center;verticalAlign=middle;resizable=0;points=[];autosize=1;strokeColor=none;fillColor=default;" vertex="1" parent="JpwA6bhCf7EVs3LNftHb-4">
          <mxGeometry y="154" width="160" height="30" as="geometry" />
        </mxCell>
        <mxCell id="JpwA6bhCf7EVs3LNftHb-10" value="Sửa dịch vụ" style="text;html=1;align=center;verticalAlign=middle;resizable=0;points=[];autosize=1;strokeColor=none;fillColor=default;" vertex="1" parent="JpwA6bhCf7EVs3LNftHb-4">
          <mxGeometry y="184" width="160" height="30" as="geometry" />
        </mxCell>
        <mxCell id="JpwA6bhCf7EVs3LNftHb-11" value="Xóa dịch vụ" style="text;html=1;align=center;verticalAlign=middle;resizable=0;points=[];autosize=1;strokeColor=none;fillColor=default;" vertex="1" parent="JpwA6bhCf7EVs3LNftHb-4">
          <mxGeometry y="214" width="160" height="30" as="geometry" />
        </mxCell>
        <mxCell id="JpwA6bhCf7EVs3LNftHb-14" value="Khiếu nại" style="swimlane;fontStyle=2;align=center;verticalAlign=top;childLayout=stackLayout;horizontal=1;startSize=26;horizontalStack=0;resizeParent=1;resizeLast=0;collapsible=1;marginBottom=0;rounded=0;shadow=0;strokeWidth=1;fillColor=default;" vertex="1" parent="WIyWlLk6GJQsqaUBKTNV-1">
          <mxGeometry x="370" y="80" width="160" height="200" as="geometry">
            <mxRectangle x="230" y="140" width="160" height="26" as="alternateBounds" />
          </mxGeometry>
        </mxCell>
        <mxCell id="JpwA6bhCf7EVs3LNftHb-15" value="Id_KN" style="text;align=left;verticalAlign=top;spacingLeft=4;spacingRight=4;overflow=hidden;rotatable=0;points=[[0,0.5],[1,0.5]];portConstraint=eastwest;fillColor=default;" vertex="1" parent="JpwA6bhCf7EVs3LNftHb-14">
          <mxGeometry y="26" width="160" height="26" as="geometry" />
        </mxCell>
        <mxCell id="JpwA6bhCf7EVs3LNftHb-16" value="Thời gian khiếu nại" style="text;align=left;verticalAlign=top;spacingLeft=4;spacingRight=4;overflow=hidden;rotatable=0;points=[[0,0.5],[1,0.5]];portConstraint=eastwest;rounded=0;shadow=0;html=0;fillColor=default;" vertex="1" parent="JpwA6bhCf7EVs3LNftHb-14">
          <mxGeometry y="52" width="160" height="26" as="geometry" />
        </mxCell>
        <mxCell id="JpwA6bhCf7EVs3LNftHb-17" value="Trạng thái" style="text;align=left;verticalAlign=top;spacingLeft=4;spacingRight=4;overflow=hidden;rotatable=0;points=[[0,0.5],[1,0.5]];portConstraint=eastwest;rounded=0;shadow=0;html=0;fillColor=default;" vertex="1" parent="JpwA6bhCf7EVs3LNftHb-14">
          <mxGeometry y="78" width="160" height="26" as="geometry" />
        </mxCell>
        <mxCell id="JpwA6bhCf7EVs3LNftHb-18" value="&#xa;" style="text;align=left;verticalAlign=top;spacingLeft=4;spacingRight=4;overflow=hidden;rotatable=0;points=[[0,0.5],[1,0.5]];portConstraint=eastwest;rounded=0;shadow=0;html=0;fillColor=default;" vertex="1" parent="JpwA6bhCf7EVs3LNftHb-14">
          <mxGeometry y="104" width="160" height="16" as="geometry" />
        </mxCell>
        <mxCell id="JpwA6bhCf7EVs3LNftHb-19" value="" style="line;html=1;strokeWidth=1;align=left;verticalAlign=middle;spacingTop=-1;spacingLeft=3;spacingRight=3;rotatable=0;labelPosition=right;points=[];portConstraint=eastwest;" vertex="1" parent="JpwA6bhCf7EVs3LNftHb-14">
          <mxGeometry y="120" width="160" height="10" as="geometry" />
        </mxCell>
        <mxCell id="JpwA6bhCf7EVs3LNftHb-20" value="Nhận khiếu nại" style="text;html=1;align=center;verticalAlign=middle;resizable=0;points=[];autosize=1;strokeColor=none;fillColor=default;" vertex="1" parent="JpwA6bhCf7EVs3LNftHb-14">
          <mxGeometry y="130" width="160" height="30" as="geometry" />
        </mxCell>
        <mxCell id="JpwA6bhCf7EVs3LNftHb-21" value="Giải quyết khiếu nại" style="text;html=1;align=center;verticalAlign=middle;resizable=0;points=[];autosize=1;strokeColor=none;fillColor=default;" vertex="1" parent="JpwA6bhCf7EVs3LNftHb-14">
          <mxGeometry y="160" width="160" height="30" as="geometry" />
        </mxCell>
        <mxCell id="JpwA6bhCf7EVs3LNftHb-23" value="Service " style="swimlane;fontStyle=2;align=center;verticalAlign=top;childLayout=stackLayout;horizontal=1;startSize=26;horizontalStack=0;resizeParent=1;resizeLast=0;collapsible=1;marginBottom=0;rounded=0;shadow=0;strokeWidth=1;fillColor=default;" vertex="1" parent="WIyWlLk6GJQsqaUBKTNV-1">
          <mxGeometry x="570" y="106" width="160" height="278" as="geometry">
            <mxRectangle x="230" y="140" width="160" height="26" as="alternateBounds" />
          </mxGeometry>
        </mxCell>
        <mxCell id="JpwA6bhCf7EVs3LNftHb-24" value="Id_DV" style="text;align=left;verticalAlign=top;spacingLeft=4;spacingRight=4;overflow=hidden;rotatable=0;points=[[0,0.5],[1,0.5]];portConstraint=eastwest;fillColor=default;" vertex="1" parent="JpwA6bhCf7EVs3LNftHb-23">
          <mxGeometry y="26" width="160" height="26" as="geometry" />
        </mxCell>
        <mxCell id="JpwA6bhCf7EVs3LNftHb-25" value="Tên DV" style="text;align=left;verticalAlign=top;spacingLeft=4;spacingRight=4;overflow=hidden;rotatable=0;points=[[0,0.5],[1,0.5]];portConstraint=eastwest;rounded=0;shadow=0;html=0;fillColor=default;" vertex="1" parent="JpwA6bhCf7EVs3LNftHb-23">
          <mxGeometry y="52" width="160" height="26" as="geometry" />
        </mxCell>
        <mxCell id="JpwA6bhCf7EVs3LNftHb-26" value="Giá" style="text;align=left;verticalAlign=top;spacingLeft=4;spacingRight=4;overflow=hidden;rotatable=0;points=[[0,0.5],[1,0.5]];portConstraint=eastwest;rounded=0;shadow=0;html=0;fillColor=default;" vertex="1" parent="JpwA6bhCf7EVs3LNftHb-23">
          <mxGeometry y="78" width="160" height="26" as="geometry" />
        </mxCell>
        <mxCell id="JpwA6bhCf7EVs3LNftHb-32" value="Thời Gian" style="text;align=left;verticalAlign=top;spacingLeft=4;spacingRight=4;overflow=hidden;rotatable=0;points=[[0,0.5],[1,0.5]];portConstraint=eastwest;rounded=0;shadow=0;html=0;fillColor=default;" vertex="1" parent="JpwA6bhCf7EVs3LNftHb-23">
          <mxGeometry y="104" width="160" height="40" as="geometry" />
        </mxCell>
        <mxCell id="JpwA6bhCf7EVs3LNftHb-27" value="Vị Trí" style="text;align=left;verticalAlign=top;spacingLeft=4;spacingRight=4;overflow=hidden;rotatable=0;points=[[0,0.5],[1,0.5]];portConstraint=eastwest;rounded=0;shadow=0;html=0;fillColor=default;" vertex="1" parent="JpwA6bhCf7EVs3LNftHb-23">
          <mxGeometry y="144" width="160" height="40" as="geometry" />
        </mxCell>
        <mxCell id="JpwA6bhCf7EVs3LNftHb-28" value="" style="line;html=1;strokeWidth=1;align=left;verticalAlign=middle;spacingTop=-1;spacingLeft=3;spacingRight=3;rotatable=0;labelPosition=right;points=[];portConstraint=eastwest;" vertex="1" parent="JpwA6bhCf7EVs3LNftHb-23">
          <mxGeometry y="184" width="160" height="16" as="geometry" />
        </mxCell>
        <mxCell id="JpwA6bhCf7EVs3LNftHb-29" value="Nhận danh sách DV" style="text;html=1;align=center;verticalAlign=middle;resizable=0;points=[];autosize=1;strokeColor=none;fillColor=default;" vertex="1" parent="JpwA6bhCf7EVs3LNftHb-23">
          <mxGeometry y="200" width="160" height="30" as="geometry" />
        </mxCell>
        <mxCell id="JpwA6bhCf7EVs3LNftHb-30" value="Kiểm tra" style="text;html=1;align=center;verticalAlign=middle;resizable=0;points=[];autosize=1;strokeColor=none;fillColor=default;" vertex="1" parent="JpwA6bhCf7EVs3LNftHb-23">
          <mxGeometry y="230" width="160" height="30" as="geometry" />
        </mxCell>
        <mxCell id="JpwA6bhCf7EVs3LNftHb-33" value="Thanh toán" style="swimlane;fontStyle=2;align=center;verticalAlign=top;childLayout=stackLayout;horizontal=1;startSize=26;horizontalStack=0;resizeParent=1;resizeLast=0;collapsible=1;marginBottom=0;rounded=0;shadow=0;strokeWidth=1;fillColor=default;" vertex="1" parent="WIyWlLk6GJQsqaUBKTNV-1">
          <mxGeometry x="100" y="505" width="160" height="260" as="geometry">
            <mxRectangle x="230" y="140" width="160" height="26" as="alternateBounds" />
          </mxGeometry>
        </mxCell>
        <mxCell id="JpwA6bhCf7EVs3LNftHb-34" value="Id_TT" style="text;align=left;verticalAlign=top;spacingLeft=4;spacingRight=4;overflow=hidden;rotatable=0;points=[[0,0.5],[1,0.5]];portConstraint=eastwest;fillColor=default;" vertex="1" parent="JpwA6bhCf7EVs3LNftHb-33">
          <mxGeometry y="26" width="160" height="26" as="geometry" />
        </mxCell>
        <mxCell id="JpwA6bhCf7EVs3LNftHb-35" value="Số lượng" style="text;align=left;verticalAlign=top;spacingLeft=4;spacingRight=4;overflow=hidden;rotatable=0;points=[[0,0.5],[1,0.5]];portConstraint=eastwest;rounded=0;shadow=0;html=0;fillColor=default;" vertex="1" parent="JpwA6bhCf7EVs3LNftHb-33">
          <mxGeometry y="52" width="160" height="26" as="geometry" />
        </mxCell>
        <mxCell id="JpwA6bhCf7EVs3LNftHb-36" value="Giá" style="text;align=left;verticalAlign=top;spacingLeft=4;spacingRight=4;overflow=hidden;rotatable=0;points=[[0,0.5],[1,0.5]];portConstraint=eastwest;rounded=0;shadow=0;html=0;fillColor=default;" vertex="1" parent="JpwA6bhCf7EVs3LNftHb-33">
          <mxGeometry y="78" width="160" height="26" as="geometry" />
        </mxCell>
        <mxCell id="JpwA6bhCf7EVs3LNftHb-37" value="Phương thức TT" style="text;align=left;verticalAlign=top;spacingLeft=4;spacingRight=4;overflow=hidden;rotatable=0;points=[[0,0.5],[1,0.5]];portConstraint=eastwest;rounded=0;shadow=0;html=0;fillColor=default;" vertex="1" parent="JpwA6bhCf7EVs3LNftHb-33">
          <mxGeometry y="104" width="160" height="40" as="geometry" />
        </mxCell>
        <mxCell id="JpwA6bhCf7EVs3LNftHb-38" value="Trạng Thái" style="text;align=left;verticalAlign=top;spacingLeft=4;spacingRight=4;overflow=hidden;rotatable=0;points=[[0,0.5],[1,0.5]];portConstraint=eastwest;rounded=0;shadow=0;html=0;fillColor=default;" vertex="1" parent="JpwA6bhCf7EVs3LNftHb-33">
          <mxGeometry y="144" width="160" height="40" as="geometry" />
        </mxCell>
        <mxCell id="JpwA6bhCf7EVs3LNftHb-39" value="" style="line;html=1;strokeWidth=1;align=left;verticalAlign=middle;spacingTop=-1;spacingLeft=3;spacingRight=3;rotatable=0;labelPosition=right;points=[];portConstraint=eastwest;" vertex="1" parent="JpwA6bhCf7EVs3LNftHb-33">
          <mxGeometry y="184" width="160" height="10" as="geometry" />
        </mxCell>
        <mxCell id="JpwA6bhCf7EVs3LNftHb-40" value="Quy trình TT" style="text;html=1;align=center;verticalAlign=middle;resizable=0;points=[];autosize=1;strokeColor=none;fillColor=default;" vertex="1" parent="JpwA6bhCf7EVs3LNftHb-33">
          <mxGeometry y="194" width="160" height="30" as="geometry" />
        </mxCell>
        <mxCell id="JpwA6bhCf7EVs3LNftHb-41" value="Xác minh TT" style="text;html=1;align=center;verticalAlign=middle;resizable=0;points=[];autosize=1;strokeColor=none;fillColor=default;" vertex="1" parent="JpwA6bhCf7EVs3LNftHb-33">
          <mxGeometry y="224" width="160" height="30" as="geometry" />
        </mxCell>
        <mxCell id="JpwA6bhCf7EVs3LNftHb-42" value="Booking" style="swimlane;fontStyle=2;align=center;verticalAlign=top;childLayout=stackLayout;horizontal=1;startSize=26;horizontalStack=0;resizeParent=1;resizeLast=0;collapsible=1;marginBottom=0;rounded=0;shadow=0;strokeWidth=1;fillColor=default;" vertex="1" parent="WIyWlLk6GJQsqaUBKTNV-1">
          <mxGeometry x="370" y="430" width="160" height="190" as="geometry">
            <mxRectangle x="230" y="140" width="160" height="26" as="alternateBounds" />
          </mxGeometry>
        </mxCell>
        <mxCell id="JpwA6bhCf7EVs3LNftHb-43" value="Id_D" style="text;align=left;verticalAlign=top;spacingLeft=4;spacingRight=4;overflow=hidden;rotatable=0;points=[[0,0.5],[1,0.5]];portConstraint=eastwest;fillColor=default;" vertex="1" parent="JpwA6bhCf7EVs3LNftHb-42">
          <mxGeometry y="26" width="160" height="26" as="geometry" />
        </mxCell>
        <mxCell id="JpwA6bhCf7EVs3LNftHb-44" value="Thời gian booking" style="text;align=left;verticalAlign=top;spacingLeft=4;spacingRight=4;overflow=hidden;rotatable=0;points=[[0,0.5],[1,0.5]];portConstraint=eastwest;rounded=0;shadow=0;html=0;fillColor=default;" vertex="1" parent="JpwA6bhCf7EVs3LNftHb-42">
          <mxGeometry y="52" width="160" height="26" as="geometry" />
        </mxCell>
        <mxCell id="JpwA6bhCf7EVs3LNftHb-45" value="Trạng thái" style="text;align=left;verticalAlign=top;spacingLeft=4;spacingRight=4;overflow=hidden;rotatable=0;points=[[0,0.5],[1,0.5]];portConstraint=eastwest;rounded=0;shadow=0;html=0;fillColor=default;" vertex="1" parent="JpwA6bhCf7EVs3LNftHb-42">
          <mxGeometry y="78" width="160" height="26" as="geometry" />
        </mxCell>
        <mxCell id="JpwA6bhCf7EVs3LNftHb-46" value="&#xa;" style="text;align=left;verticalAlign=top;spacingLeft=4;spacingRight=4;overflow=hidden;rotatable=0;points=[[0,0.5],[1,0.5]];portConstraint=eastwest;rounded=0;shadow=0;html=0;fillColor=default;" vertex="1" parent="JpwA6bhCf7EVs3LNftHb-42">
          <mxGeometry y="104" width="160" height="16" as="geometry" />
        </mxCell>
        <mxCell id="JpwA6bhCf7EVs3LNftHb-47" value="" style="line;html=1;strokeWidth=1;align=left;verticalAlign=middle;spacingTop=-1;spacingLeft=3;spacingRight=3;rotatable=0;labelPosition=right;points=[];portConstraint=eastwest;" vertex="1" parent="JpwA6bhCf7EVs3LNftHb-42">
          <mxGeometry y="120" width="160" height="10" as="geometry" />
        </mxCell>
        <mxCell id="JpwA6bhCf7EVs3LNftHb-48" value="Đặt&amp;nbsp;" style="text;html=1;align=center;verticalAlign=middle;resizable=0;points=[];autosize=1;strokeColor=none;fillColor=default;" vertex="1" parent="JpwA6bhCf7EVs3LNftHb-42">
          <mxGeometry y="130" width="160" height="30" as="geometry" />
        </mxCell>
        <mxCell id="JpwA6bhCf7EVs3LNftHb-49" value="Hủy&amp;nbsp;" style="text;html=1;align=center;verticalAlign=middle;resizable=0;points=[];autosize=1;strokeColor=none;fillColor=default;" vertex="1" parent="JpwA6bhCf7EVs3LNftHb-42">
          <mxGeometry y="160" width="160" height="30" as="geometry" />
        </mxCell>
        <mxCell id="JpwA6bhCf7EVs3LNftHb-50" value="Admin" style="swimlane;fontStyle=2;align=center;verticalAlign=top;childLayout=stackLayout;horizontal=1;startSize=26;horizontalStack=0;resizeParent=1;resizeLast=0;collapsible=1;marginBottom=0;rounded=0;shadow=0;strokeWidth=1;fillColor=default;" vertex="1" parent="WIyWlLk6GJQsqaUBKTNV-1">
          <mxGeometry x="590" y="510" width="160" height="250" as="geometry">
            <mxRectangle x="230" y="140" width="160" height="26" as="alternateBounds" />
          </mxGeometry>
        </mxCell>
        <mxCell id="JpwA6bhCf7EVs3LNftHb-51" value="Id_QL" style="text;align=left;verticalAlign=top;spacingLeft=4;spacingRight=4;overflow=hidden;rotatable=0;points=[[0,0.5],[1,0.5]];portConstraint=eastwest;fillColor=default;rounded=0;shadow=0;glass=0;" vertex="1" parent="JpwA6bhCf7EVs3LNftHb-50">
          <mxGeometry y="26" width="160" height="26" as="geometry" />
        </mxCell>
        <mxCell id="JpwA6bhCf7EVs3LNftHb-52" value="Tên" style="text;align=left;verticalAlign=top;spacingLeft=4;spacingRight=4;overflow=hidden;rotatable=0;points=[[0,0.5],[1,0.5]];portConstraint=eastwest;rounded=0;shadow=0;html=0;fillColor=default;" vertex="1" parent="JpwA6bhCf7EVs3LNftHb-50">
          <mxGeometry y="52" width="160" height="26" as="geometry" />
        </mxCell>
        <mxCell id="JpwA6bhCf7EVs3LNftHb-58" value="Mail" style="text;align=left;verticalAlign=top;spacingLeft=4;spacingRight=4;overflow=hidden;rotatable=0;points=[[0,0.5],[1,0.5]];portConstraint=eastwest;rounded=0;shadow=0;html=0;fillColor=default;" vertex="1" parent="JpwA6bhCf7EVs3LNftHb-50">
          <mxGeometry y="78" width="160" height="26" as="geometry" />
        </mxCell>
        <mxCell id="JpwA6bhCf7EVs3LNftHb-53" value="Vai trò" style="text;align=left;verticalAlign=top;spacingLeft=4;spacingRight=4;overflow=hidden;rotatable=0;points=[[0,0.5],[1,0.5]];portConstraint=eastwest;rounded=0;shadow=0;html=0;fillColor=default;" vertex="1" parent="JpwA6bhCf7EVs3LNftHb-50">
          <mxGeometry y="104" width="160" height="26" as="geometry" />
        </mxCell>
        <mxCell id="JpwA6bhCf7EVs3LNftHb-54" value="&#xa;" style="text;align=left;verticalAlign=top;spacingLeft=4;spacingRight=4;overflow=hidden;rotatable=0;points=[[0,0.5],[1,0.5]];portConstraint=eastwest;rounded=0;shadow=0;html=0;" vertex="1" parent="JpwA6bhCf7EVs3LNftHb-50">
          <mxGeometry y="130" width="160" height="20" as="geometry" />
        </mxCell>
        <mxCell id="JpwA6bhCf7EVs3LNftHb-55" value="" style="line;html=1;strokeWidth=1;align=left;verticalAlign=middle;spacingTop=-1;spacingLeft=3;spacingRight=3;rotatable=0;labelPosition=right;points=[];portConstraint=eastwest;" vertex="1" parent="JpwA6bhCf7EVs3LNftHb-50">
          <mxGeometry y="150" width="160" height="10" as="geometry" />
        </mxCell>
        <mxCell id="JpwA6bhCf7EVs3LNftHb-59" value="Quản lý hệ thống" style="text;html=1;align=center;verticalAlign=middle;resizable=0;points=[];autosize=1;strokeColor=none;fillColor=default;" vertex="1" parent="JpwA6bhCf7EVs3LNftHb-50">
          <mxGeometry y="160" width="160" height="30" as="geometry" />
        </mxCell>
        <mxCell id="JpwA6bhCf7EVs3LNftHb-57" value="Quản lý dịch vụ" style="text;html=1;align=center;verticalAlign=middle;resizable=0;points=[];autosize=1;strokeColor=none;fillColor=default;" vertex="1" parent="JpwA6bhCf7EVs3LNftHb-50">
          <mxGeometry y="190" width="160" height="30" as="geometry" />
        </mxCell>
        <mxCell id="JpwA6bhCf7EVs3LNftHb-56" value="Xử lý khiếu nại" style="text;html=1;align=center;verticalAlign=middle;resizable=0;points=[];autosize=1;strokeColor=none;fillColor=default;" vertex="1" parent="JpwA6bhCf7EVs3LNftHb-50">
          <mxGeometry y="220" width="160" height="30" as="geometry" />
        </mxCell>
        <mxCell id="JpwA6bhCf7EVs3LNftHb-60" value="" style="endArrow=none;endFill=0;endSize=12;html=1;rounded=0;exitX=1;exitY=1;exitDx=0;exitDy=0;entryX=0;entryY=0;entryDx=0;entryDy=0;" edge="1" parent="WIyWlLk6GJQsqaUBKTNV-1" source="zkfFHV4jXpPFQw0GAbJ--0" target="JpwA6bhCf7EVs3LNftHb-42">
          <mxGeometry width="160" relative="1" as="geometry">
            <mxPoint x="330" y="420" as="sourcePoint" />
            <mxPoint x="490" y="420" as="targetPoint" />
          </mxGeometry>
        </mxCell>
        <mxCell id="JpwA6bhCf7EVs3LNftHb-61" value="" style="endArrow=none;endFill=0;endSize=12;html=1;rounded=0;exitX=1;exitY=0;exitDx=0;exitDy=0;entryX=0;entryY=1;entryDx=0;entryDy=0;" edge="1" parent="WIyWlLk6GJQsqaUBKTNV-1" source="JpwA6bhCf7EVs3LNftHb-42" target="JpwA6bhCf7EVs3LNftHb-23">
          <mxGeometry width="160" relative="1" as="geometry">
            <mxPoint x="340" y="420" as="sourcePoint" />
            <mxPoint x="460" y="510" as="targetPoint" />
          </mxGeometry>
        </mxCell>
        <mxCell id="JpwA6bhCf7EVs3LNftHb-63" value="" style="endArrow=none;endFill=0;endSize=12;html=1;rounded=0;entryX=0.992;entryY=0.764;entryDx=0;entryDy=0;exitX=0;exitY=1;exitDx=0;exitDy=0;entryPerimeter=0;" edge="1" parent="WIyWlLk6GJQsqaUBKTNV-1" source="JpwA6bhCf7EVs3LNftHb-14" target="zkfFHV4jXpPFQw0GAbJ--3">
          <mxGeometry width="160" relative="1" as="geometry">
            <mxPoint x="380" y="310" as="sourcePoint" />
            <mxPoint x="219.03999999999974" y="299.99999999999983" as="targetPoint" />
          </mxGeometry>
        </mxCell>
        <mxCell id="JpwA6bhCf7EVs3LNftHb-65" value="" style="endArrow=none;endFill=0;endSize=12;html=1;rounded=0;entryX=0.5;entryY=0;entryDx=0;entryDy=0;exitX=0.5;exitY=1;exitDx=0;exitDy=0;" edge="1" parent="WIyWlLk6GJQsqaUBKTNV-1" source="JpwA6bhCf7EVs3LNftHb-14" target="JpwA6bhCf7EVs3LNftHb-42">
          <mxGeometry width="160" relative="1" as="geometry">
            <mxPoint x="413.04" y="392.95" as="sourcePoint" />
            <mxPoint x="254.04" y="359.95" as="targetPoint" />
          </mxGeometry>
        </mxCell>
        <mxCell id="JpwA6bhCf7EVs3LNftHb-66" value="" style="endArrow=none;endFill=0;endSize=12;html=1;rounded=0;exitX=0.528;exitY=0.918;exitDx=0;exitDy=0;exitPerimeter=0;entryX=0.001;entryY=0.2;entryDx=0;entryDy=0;entryPerimeter=0;" edge="1" parent="WIyWlLk6GJQsqaUBKTNV-1" source="JpwA6bhCf7EVs3LNftHb-49" target="JpwA6bhCf7EVs3LNftHb-57">
          <mxGeometry width="160" relative="1" as="geometry">
            <mxPoint x="550" y="692" as="sourcePoint" />
            <mxPoint x="820" y="660" as="targetPoint" />
          </mxGeometry>
        </mxCell>
        <mxCell id="JpwA6bhCf7EVs3LNftHb-67" value="" style="endArrow=none;endFill=0;endSize=12;html=1;rounded=0;exitX=0.5;exitY=1;exitDx=0;exitDy=0;entryX=0.5;entryY=0;entryDx=0;entryDy=0;" edge="1" parent="WIyWlLk6GJQsqaUBKTNV-1" source="JpwA6bhCf7EVs3LNftHb-23" target="JpwA6bhCf7EVs3LNftHb-50">
          <mxGeometry width="160" relative="1" as="geometry">
            <mxPoint x="509.52" y="607" as="sourcePoint" />
            <mxPoint x="836.52" y="570" as="targetPoint" />
          </mxGeometry>
        </mxCell>
        <mxCell id="JpwA6bhCf7EVs3LNftHb-68" value="" style="endArrow=none;endFill=0;endSize=12;html=1;rounded=0;exitX=1;exitY=0.5;exitDx=0;exitDy=0;entryX=0;entryY=0.5;entryDx=0;entryDy=0;" edge="1" parent="WIyWlLk6GJQsqaUBKTNV-1" source="JpwA6bhCf7EVs3LNftHb-23" target="JpwA6bhCf7EVs3LNftHb-7">
          <mxGeometry width="160" relative="1" as="geometry">
            <mxPoint x="710" y="350" as="sourcePoint" />
            <mxPoint x="867" y="541" as="targetPoint" />
          </mxGeometry>
        </mxCell>
        <mxCell id="JpwA6bhCf7EVs3LNftHb-69" value="" style="endArrow=none;endFill=0;endSize=12;html=1;rounded=0;exitX=1;exitY=0.5;exitDx=0;exitDy=0;entryX=0;entryY=0.5;entryDx=0;entryDy=0;" edge="1" parent="WIyWlLk6GJQsqaUBKTNV-1" source="JpwA6bhCf7EVs3LNftHb-34" target="JpwA6bhCf7EVs3LNftHb-46">
          <mxGeometry width="160" relative="1" as="geometry">
            <mxPoint x="220" y="500" as="sourcePoint" />
            <mxPoint x="340" y="590" as="targetPoint" />
          </mxGeometry>
        </mxCell>
      </root>
    </mxGraphModel>
  </diagram>
</mxfile>
